<?xml version="1.0" encoding="UTF-8"?>
<svg width="500" height="400" viewBox="0 0 500 400" fill="none" xmlns="http://www.w3.org/2000/svg">
    <!-- Bank Building -->
    <rect x="100" y="100" width="300" height="250" fill="#2563eb" rx="10"/>
    <rect x="120" y="120" width="260" height="200" fill="#1d4ed8" rx="5"/>
    
    <!-- Windows -->
    <rect x="140" y="140" width="60" height="60" fill="#e0f2fe" rx="5"/>
    <rect x="220" y="140" width="60" height="60" fill="#e0f2fe" rx="5"/>
    <rect x="300" y="140" width="60" height="60" fill="#e0f2fe" rx="5"/>
    <rect x="140" y="220" width="60" height="60" fill="#e0f2fe" rx="5"/>
    <rect x="220" y="220" width="60" height="60" fill="#e0f2fe" rx="5"/>
    <rect x="300" y="220" width="60" height="60" fill="#e0f2fe" rx="5"/>
    
    <!-- Door -->
    <rect x="220" y="300" width="60" height="50" fill="#f8fafc" rx="5"/>
    
    <!-- Money Symbol -->
    <circle cx="250" cy="200" r="40" fill="#f8fafc"/>
    <text x="250" y="210" font-family="Arial" font-size="40" fill="#2563eb" text-anchor="middle">$</text>
    
    <!-- Decorative Elements -->
    <circle cx="100" cy="100" r="20" fill="#e0f2fe"/>
    <circle cx="400" cy="100" r="20" fill="#e0f2fe"/>
    <circle cx="100" cy="350" r="20" fill="#e0f2fe"/>
    <circle cx="400" cy="350" r="20" fill="#e0f2fe"/>
</svg> 